<svg id="图层_1" data-name="图层 1" xmlns="http://www.w3.org/2000/svg" xmlns:xlink="http://www.w3.org/1999/xlink" viewBox="0 0 244.42 53.46"><defs><style>.cls-1{fill:url(#未命名的渐变_25);}.cls-2{fill:url(#未命名的渐变_25-2);}.cls-3{fill:url(#未命名的渐变_25-3);}.cls-4{fill:url(#未命名的渐变_25-4);}.cls-5{fill:url(#未命名的渐变_25-5);}</style><linearGradient id="未命名的渐变_25" x1="27.33" y1="65.73" x2="27.33" y2="12.27" gradientUnits="userSpaceOnUse"><stop offset="0" stop-color="#b721ff"/><stop offset="0.19" stop-color="#a73bff"/><stop offset="0.6" stop-color="#7f7cfd"/><stop offset="1" stop-color="#54c0fc"/></linearGradient><linearGradient id="未命名的渐变_25-2" x1="77.48" y1="65.73" x2="77.48" y2="12.27" xlink:href="#未命名的渐变_25"/><linearGradient id="未命名的渐变_25-3" x1="127.54" y1="65.73" x2="127.54" y2="12.27" xlink:href="#未命名的渐变_25"/><linearGradient id="未命名的渐变_25-4" x1="178.64" y1="65.73" x2="178.64" y2="12.27" xlink:href="#未命名的渐变_25"/><linearGradient id="未命名的渐变_25-5" x1="225.28" y1="65.73" x2="225.28" y2="12.27" xlink:href="#未命名的渐变_25"/></defs><title>jianbian</title><path class="cls-1" d="M51.75,65.73H38.22L28.63,48a15.12,15.12,0,0,1-1.07-3.49h-.14a24.13,24.13,0,0,1-1.24,3.59L16.55,65.73H2.91L20.07,39,4.4,12.27H18.27l8,16.36A27.58,27.58,0,0,1,27.9,33H28q.72-2.17,1.76-4.59l8.8-16.19H51.34L35.18,38.78Z" transform="translate(-2.91 -12.27)"/><path class="cls-2" d="M69.7,47.09V65.73H58.31V12.27H76.7q19.95,0,19.95,16.91a16.19,16.19,0,0,1-6,13.17q-6,5-15.07,4.75Zm0-26V38.36h4.94q10,0,10-8.73,0-8.52-9.94-8.52Z" transform="translate(-2.91 -12.27)"/><path class="cls-3" d="M150.32,65.73H138.93V43.68H116.15V65.73H104.76V12.27h11.39V33.84h22.78V12.27h11.39Z" transform="translate(-2.91 -12.27)"/><path class="cls-4" d="M194.46,65.73H162.81V12.27h30.41v9.32h-19v12.6h17.67v9.28H174.2V56.41h20.26Z" transform="translate(-2.91 -12.27)"/><path class="cls-5" d="M247.34,65.73H234.22l-8.39-13.91q-2.59-4.31-4.25-5.56A5.77,5.77,0,0,0,218.07,45h-3.45V65.73H203.23V12.27H222q19.09,0,19.09,14.5a14.3,14.3,0,0,1-3.19,9.35,17,17,0,0,1-8.78,5.49v.14q3.69,1.24,8.18,8.15Zm-32.72-44.8V36.33h5.59A8.92,8.92,0,0,0,226.65,34a7.72,7.72,0,0,0,2.43-5.82q0-7.25-8.66-7.25Z" transform="translate(-2.91 -12.27)"/></svg>